<svg id="Layer_1" data-name="Layer 1" xmlns="http://www.w3.org/2000/svg" viewBox="0 0 217.38 37.05"><defs><style>.cls-1{isolation:isolate;}.cls-2{fill:#3c78d8;}</style></defs><title>small_victory_text3</title><g class="cls-1"><g class="cls-1"><path class="cls-2" d="M8.79,8.6c4.28,0,7.52,2.56,7.66,6H13.19c-0.21-2-1.93-3.2-4.51-3.2s-4.34,1.23-4.34,3.07c0,1.43,1.13,2.38,3.55,3l3.2,0.8c4.26,1.07,5.78,2.56,5.78,5.63,0,3.59-3.46,6.13-8.32,6.13C4,30,.75,27.56.42,23.91H3.83c0.35,2.15,2.09,3.3,5,3.3s4.67-1.19,4.67-3.09c0-1.48-.88-2.27-3.28-2.89l-3.69-1C2.8,19.32,1,17.46,1,14.65,1,11.1,4.22,8.6,8.79,8.6Z" transform="translate(-0.42 -0.41)"/><path class="cls-2" d="M20.57,8.77h3.2v3.42h0.08a6.29,6.29,0,0,1,6-3.61,5.9,5.9,0,0,1,5.9,4h0.08a7.1,7.1,0,0,1,6.62-4c4.16,0,6.86,2.7,6.86,6.88V29.83h-3.4V16.23c0-2.91-1.62-4.63-4.43-4.63a4.73,4.73,0,0,0-4.82,5V29.83h-3.4v-14a4.05,4.05,0,0,0-4.38-4.22A4.89,4.89,0,0,0,24,16.76V29.83h-3.4V8.77Z" transform="translate(-0.42 -0.41)"/><path class="cls-2" d="M52.84,23.83c0-3.61,2.77-5.74,7.89-6.05l5.9-.35V15.67c0-2.62-1.72-4.06-4.82-4.06-2.44,0-4.26,1.25-4.67,3.24H53.87c0.1-3.55,3.55-6.27,8-6.27,5,0,8.18,2.66,8.18,6.8V29.83H66.8V26.18H66.72A7.5,7.5,0,0,1,59.95,30C55.67,30,52.84,27.56,52.84,23.83Zm13.79-2v-1.7l-5.51.35c-3.16.2-4.8,1.35-4.8,3.38s1.7,3.22,4.36,3.22C64.11,27.07,66.63,24.85,66.63,21.82Z" transform="translate(-0.42 -0.41)"/></g><g class="cls-1"><path class="cls-2" d="M75.85,0.41h3.4V29.83h-3.4V0.41Z" transform="translate(-0.42 -0.41)"/><path class="cls-2" d="M84.25,0.41h3.4V29.83h-3.4V0.41Z" transform="translate(-0.42 -0.41)"/></g><g class="cls-1"><path class="cls-2" d="M112,29.83h-3.44L100.81,8.77h3.55l5.9,17.38h0.08l5.92-17.38h3.54Z" transform="translate(-0.42 -0.41)"/></g><g class="cls-1"><path class="cls-2" d="M123.1,3.23a2.15,2.15,0,1,1,2.15,2.15A2.15,2.15,0,0,1,123.1,3.23Zm0.45,5.55h3.4V29.83h-3.4V8.77Z" transform="translate(-0.42 -0.41)"/></g><g class="cls-1"><path class="cls-2" d="M146.12,15.63c-0.43-2.25-2.3-4-5.47-4-3.67,0-6.17,3-6.17,7.7S137,27,140.69,27c2.93,0,4.88-1.37,5.47-3.91h3.34c-0.57,4.1-4,6.93-8.83,6.93-5.78,0-9.65-4.1-9.65-10.72,0-6.46,3.85-10.72,9.61-10.72,5.21,0,8.4,3.36,8.83,7.05h-3.34Z" transform="translate(-0.42 -0.41)"/></g><g class="cls-1"><path class="cls-2" d="M157.57,4V8.77h4.1v2.81h-4.1V24.22c0,1.93.82,2.81,2.62,2.81a14.08,14.08,0,0,0,1.46-.1v2.87a12.29,12.29,0,0,1-2.19.18c-3.81,0-5.29-1.58-5.29-5.62V11.59h-2.93V8.77h2.93V4h3.4Z" transform="translate(-0.42 -0.41)"/></g><g class="cls-1"><path class="cls-2" d="M164.22,19.3c0-6.54,3.79-10.72,9.71-10.72s9.71,4.18,9.71,10.72S179.84,30,173.93,30,164.22,25.82,164.22,19.3Zm16,0c0-4.84-2.32-7.7-6.25-7.7s-6.25,2.87-6.25,7.7S170,27,173.93,27,180.18,24.13,180.18,19.3Z" transform="translate(-0.42 -0.41)"/><path class="cls-2" d="M187.21,8.77h3.2v3.42h0.08a5.08,5.08,0,0,1,5.1-3.61A7.68,7.68,0,0,1,197,8.7V12a7.08,7.08,0,0,0-1.86-.2c-2.73,0-4.53,2-4.53,5v13h-3.4V8.77Z" transform="translate(-0.42 -0.41)"/></g><g class="cls-1"><path class="cls-2" d="M200.87,37.33V34.46a7.81,7.81,0,0,0,1.39.12c2,0,3-.94,3.87-3.48l0.41-1.25L198.74,8.77h3.61l5.9,17.6h0.08l5.9-17.6h3.57l-8.24,22.34c-1.8,4.88-3.48,6.35-7.21,6.35A9.32,9.32,0,0,1,200.87,37.33Z" transform="translate(-0.42 -0.41)"/></g></g></svg>