<?xml version="1.0" encoding="utf-8"?>
<!-- Generator: Adobe Illustrator 19.2.1, SVG Export Plug-In . SVG Version: 6.00 Build 0)  -->
<svg version="1.1" id="Layer_1" xmlns="http://www.w3.org/2000/svg" xmlns:xlink="http://www.w3.org/1999/xlink" x="0px" y="0px"
	 viewBox="0 0 58.3 58.4" style="enable-background:new 0 0 58.3 58.4;" xml:space="preserve">
<style type="text/css">
	.st0{fill:#3C78D8;}
</style>
<path class="st0" d="M29,0c8.1,0,15,2.8,20.7,8.5c5.7,5.7,8.5,12.6,8.5,20.7c0,8.1-2.8,15-8.5,20.7C44,55.5,37.1,58.4,29,58.4
	c-8,0-14.9-2.8-20.6-8.5C2.8,44.1,0,37.3,0,29.2c0-8.1,2.8-15,8.5-20.7C14.1,2.8,21,0,29,0L29,0z M41.5,28.1c0,3.4-1.2,6-3.7,7.8
	c-2.5,1.8-5.5,2.7-9.1,2.7c-2.5,0-4.9-0.6-7.2-1.7c-3.4-1.7-5.1-4.4-5.1-8.3l-4.6,0.6c0,4.5,1.6,8.1,4.9,10.9
	c3.3,2.8,7.3,4.2,12.2,4.2c5.1,0,9.3-1.6,12.4-4.7c3.1-3.1,4.7-6.8,4.7-11.2L41.5,28.1z M21.2,24.6c1.4,0,2.5-0.4,3.4-1.3
	c0.9-0.9,1.3-2,1.3-3.4c0-1.4-0.4-2.6-1.3-3.5c-0.9-0.9-2-1.3-3.4-1.3c-1.4,0-2.5,0.4-3.4,1.3c-0.9,0.9-1.3,2-1.3,3.5
	c0,1.4,0.4,2.5,1.3,3.4C18.7,24.1,19.9,24.6,21.2,24.6z M37.1,24.6c1.4,0,2.5-0.4,3.4-1.3c0.9-0.9,1.3-2,1.3-3.4
	c0-1.4-0.4-2.6-1.3-3.5c-0.9-0.9-2-1.3-3.4-1.3c-1.4,0-2.5,0.4-3.4,1.3c-0.9,0.9-1.3,2-1.3,3.5c0,1.4,0.4,2.5,1.3,3.4
	C34.6,24.1,35.7,24.6,37.1,24.6z"/>
</svg>
